<?xml version="1.0" encoding="utf-8"?>
<!-- Generator: Adobe Illustrator 25.0.1, SVG Export Plug-In . SVG Version: 6.00 Build 0)  -->
<svg version="1.0" id="Layer_1" xmlns="http://www.w3.org/2000/svg" xmlns:xlink="http://www.w3.org/1999/xlink" x="0px" y="0px"
	 viewBox="0 0 250 145" style="enable-background:new 0 0 250 145;" xml:space="preserve">
<style type="text/css">
	.st0{fill:#28ABE1;}
	.st1{fill:#3DB3E3;}
	.st2{fill:#4AB8E6;}
	.st3{fill:#57BDE8;}
	.st4{fill:#63C2EB;}
	.st5{fill:#70C7EB;}
	.st6{fill:#7DCCEE;}
	.st7{fill:#8AD1F0;}
	.st8{fill:#97D7F0;}
	.st9{fill:#A3DCF3;}
	.st10{fill:#B0E1F5;}
	.st11{fill:#BDE6F5;}
	.st12{fill:#E11735;}
	.st13{fill:none;}
</style>
<g id="layer1">
	<g id="g1385">
		<path id="path704" class="st0" d="M202.3,90.8h-2.6c-0.6,0-0.9,0.4-0.9,1.3s0.3,1.3,0.9,1.3h10.1c0.6,0,1-0.4,1-1.3
			s-0.3-1.3-1-1.3H202.3z"/>
		<path id="path706" class="st1" d="M187,90.8h-2.6c-0.6,0-1,0.4-1,1.3s0.4,1.3,1,1.3h10c0.6,0,0.9-0.4,0.9-1.3s-0.3-1.3-0.9-1.3
			H187z"/>
		<path id="path708" class="st2" d="M172.4,90.8h-2.6c-0.6,0-0.9,0.4-0.9,1.3s0.3,1.3,0.9,1.3h10c0.6,0,1-0.4,1-1.3s-0.3-1.3-1-1.3
			H172.4z"/>
		<path id="path710" class="st3" d="M157.1,90.8h-2.6c-0.6,0-1,0.4-1,1.3s0.3,1.3,1,1.3h10c0.6,0,1-0.4,1-1.3s-0.3-1.3-1-1.3H157.1z
			"/>
		<path id="path712" class="st4" d="M141.8,90.8h-2.6c-0.6,0-1,0.4-1,1.3s0.3,1.3,1,1.3h10c0.6,0,1-0.4,1-1.3s-0.3-1.3-1-1.3H141.8z
			"/>
		<path id="path714" class="st5" d="M127.3,90.8h-2.6c-0.6,0-1,0.4-1,1.3s0.3,1.3,1,1.3h10c0.6,0,1-0.4,1-1.3s-0.3-1.3-1-1.3H127.3z
			"/>
		<path id="path716" class="st6" d="M111.9,90.8h-2.6c-0.6,0-1,0.4-1,1.3s0.3,1.3,1,1.3h10c0.7,0,1-0.4,1-1.3s-0.3-1.3-1-1.3H111.9z
			"/>
		<path id="path718" class="st7" d="M96.6,90.8H94c-0.6,0-1,0.4-1,1.3s0.3,1.3,1,1.3h10c0.6,0,0.9-0.4,0.9-1.3s-0.3-1.3-0.9-1.3
			H96.6z"/>
		<path id="path720" class="st8" d="M82.1,90.8h-2.6c-0.6,0-1,0.4-1,1.3s0.3,1.3,1,1.3h10c0.6,0,1-0.4,1-1.3s-0.3-1.3-1-1.3H82.1z"
			/>
		<path id="path722" class="st9" d="M66.7,90.8h-2.6c-0.6,0-1,0.4-1,1.3s0.3,1.3,1,1.3h10c0.6,0,1-0.4,1-1.3s-0.3-1.3-1-1.3H66.7z"
			/>
		<path id="path724" class="st10" d="M51.4,90.8h-2.6c-0.6,0-0.9,0.4-0.9,1.3s0.3,1.3,0.9,1.3h10c0.6,0,1-0.4,1-1.3s-0.3-1.3-1-1.3
			H51.4z"/>
		<path id="path726" class="st11" d="M36.9,90.8h-2.6c-0.6,0-0.9,0.4-0.9,1.3s0.3,1.3,0.9,1.3h10c0.6,0,1-0.4,1-1.3s-0.3-1.3-1-1.3
			H36.9z"/>
		<path id="path728" class="st12" d="M33.4,59.8h2.7v3.8c0.7-1.2,1.7-2.2,2.9-3c1.3-0.8,2.8-1.3,4.3-1.3c1,0,2,0.2,2.9,0.6
			c0.9,0.4,1.6,0.9,2.2,1.7c0.7,0.9,1.2,1.9,1.5,2.9c0.8-1.5,2-2.9,3.4-3.9c1.3-0.9,2.8-1.3,4.4-1.3c1.4,0,2.7,0.4,3.9,1.1
			c1.1,0.8,2,1.9,2.5,3.2c0.6,1.9,0.9,4,0.8,6v11.9h-2.8V69.6c0.1-1.6-0.1-3.2-0.5-4.8c-0.3-0.9-0.9-1.6-1.7-2.1
			c-0.8-0.5-1.8-0.8-2.8-0.8c-1.3,0-2.6,0.4-3.6,1.2c-1.1,0.8-1.9,1.9-2.4,3.2c-0.6,2.2-0.8,4.4-0.7,6.6v8.5h-2.7v-11
			c0.1-1.8-0.1-3.6-0.5-5.3c-0.3-0.9-0.9-1.7-1.7-2.2c-0.8-0.6-1.8-0.9-2.8-0.8c-1.3,0-2.5,0.4-3.5,1.2c-1.1,0.8-1.9,1.9-2.4,3.1
			c-0.6,1.9-0.9,4-0.8,6v9.1h-2.7V59.8z"/>
		<path id="path730" class="st12" d="M81.1,62.1c-2.2,0-4.4,0.9-5.9,2.6c-1.6,1.7-2.5,3.9-2.5,6.3c0,1.5,0.4,3.1,1.1,4.4
			c0.7,1.3,1.7,2.4,3,3.2c2.6,1.5,5.7,1.5,8.3,0c1.3-0.7,2.3-1.8,3-3.2c0.7-1.4,1.1-2.9,1.1-4.4c0.1-2.3-0.8-4.6-2.3-6.3
			C85.5,63,83.4,62,81.1,62.1L81.1,62.1z M81.1,59.3c3.1-0.1,6.1,1.3,8.1,3.7c4,4.6,3.9,11.4-0.2,15.9c-2,2.3-4.9,3.5-7.9,3.4
			c-3,0.1-6-1.2-8-3.4c-2-2.2-3.2-5-3.1-8c0-2.9,1-5.7,3-7.9C75,60.6,78,59.2,81.1,59.3z"/>
		<path id="path732" class="st12" d="M107.7,62.1c-1.5,0-3,0.4-4.2,1.1c-1.3,0.8-2.4,1.9-3.1,3.2c-1.5,2.7-1.5,6,0,8.8
			c0.7,1.4,1.8,2.5,3.1,3.3c1.3,0.8,2.7,1.2,4.2,1.2c1.5,0,3-0.4,4.3-1.2c1.3-0.7,2.4-1.8,3.1-3.1c0.7-1.4,1-2.9,1-4.5
			c0.1-2.3-0.8-4.6-2.4-6.3C112.1,63,109.9,62.1,107.7,62.1z M118.6,51.6v30.1h-2.7V78c-1,1.3-2.4,2.4-3.8,3.2
			c-1.5,0.7-3.1,1.1-4.7,1.1c-2.9,0-5.7-1.2-7.7-3.4c-2.1-2.2-3.3-5.1-3.2-8.1c0-3,1.1-5.9,3.2-8c2-2.2,4.8-3.4,7.8-3.3
			c1.6,0,3.3,0.4,4.7,1.1c1.5,0.8,2.8,2,3.7,3.4V51.6H118.6z"/>
		<path id="path734" class="st12" d="M142.9,68.6c-0.3-1.3-0.8-2.5-1.6-3.6c-0.7-0.9-1.7-1.7-2.8-2.2c-1.1-0.6-2.4-0.9-3.6-0.8
			c-2,0-4,0.7-5.4,2.1c-1.2,1.2-2.1,2.8-2.5,4.5L142.9,68.6z M142.9,74.5l2.3,1.3c-0.7,1.4-1.5,2.6-2.6,3.7c-1,0.9-2.1,1.7-3.4,2.2
			c-1.4,0.5-2.8,0.7-4.2,0.7c-3.1,0.2-6.2-1.1-8.2-3.5c-1.9-2.2-3-5-3-7.9c0-2.7,0.8-5.3,2.5-7.4c2-2.7,5.2-4.3,8.5-4.2
			c3.4-0.1,6.7,1.4,8.8,4.2c1.6,2.2,2.4,4.8,2.4,7.5h-19.3c0,2.3,0.8,4.5,2.4,6.2c1.5,1.6,3.5,2.5,5.7,2.4c1.1,0,2.2-0.2,3.2-0.6
			c1-0.3,1.9-0.9,2.6-1.5C141.4,76.7,142.2,75.6,142.9,74.5L142.9,74.5z"/>
		<path id="path736" class="st12" d="M150.1,59.8h2.9V63c0.7-1.1,1.6-2.1,2.7-2.8c1.6-1.2,3.8-1.2,5.5-0.2l-1.5,2.4
			c-0.5-0.2-1-0.4-1.5-0.4c-1,0-2,0.4-2.7,1.1c-1,1-1.7,2.2-2,3.6c-0.5,2.5-0.6,5-0.5,7.5v7.3h-2.9L150.1,59.8z"/>
		<path id="path738" class="st12" d="M164.6,59.8h2.6v3.9c0.9-1.3,2.1-2.5,3.5-3.3c1.3-0.7,2.7-1.1,4.2-1.1c1.4,0,2.9,0.4,4.1,1.2
			c1.2,0.8,2.1,2,2.6,3.3c0.7,2.1,1,4.3,0.9,6.5v11.2h-2.6V71.2c0.1-1.7,0-3.3-0.3-5c-0.2-1.2-0.8-2.4-1.8-3.2
			c-1-0.7-2.2-1.1-3.4-1.1c-1.6,0-3.1,0.6-4.3,1.6c-1.2,1.1-2.1,2.5-2.5,4.1c-0.3,1.9-0.4,3.9-0.4,5.9v8h-2.6L164.6,59.8z"/>
		<path id="path740" class="st12" d="M198.9,62c-1.5,0-3,0.4-4.2,1.2c-1.3,0.8-2.4,1.9-3.1,3.3c-1.5,2.7-1.5,6.1,0,8.8
			c0.7,1.4,1.8,2.5,3.1,3.3c1.3,0.8,2.7,1.2,4.2,1.2c1.5,0,3-0.4,4.3-1.2c1.3-0.7,2.4-1.8,3.1-3.2c0.7-1.4,1-2.9,1-4.5
			c0.1-2.4-0.8-4.6-2.4-6.3C203.3,62.9,201.1,62,198.9,62z M209.8,59.8v21.9h-2.7V78c-1,1.3-2.4,2.5-3.9,3.3
			c-1.5,0.7-3.1,1.1-4.7,1.1c-2.9,0-5.7-1.2-7.7-3.4c-2.1-2.2-3.3-5.1-3.2-8.2c0-3,1.1-5.9,3.2-8.1c2-2.2,4.8-3.4,7.8-3.3
			c1.6,0,3.3,0.4,4.7,1.2c1.5,0.8,2.8,2,3.7,3.4v-4L209.8,59.8z"/>
		<path id="path742" class="st12" d="M214.5,61.7h0.3c0.2,0,0.3,0,0.4-0.1c0.1,0,0.1-0.1,0.1-0.2c0,0,0-0.1,0-0.2
			c0,0-0.1-0.1-0.1-0.1c-0.1,0-0.2,0-0.3,0h-0.3L214.5,61.7z M214.2,62.7v-1.8h0.6c0.2,0,0.3,0,0.5,0c0.1,0.1,0.2,0.1,0.2,0.2
			c0.1,0.1,0.1,0.2,0.1,0.3c0,0.1,0,0.3-0.1,0.3c-0.1,0.1-0.3,0.2-0.4,0.2c0.1,0,0.1,0.1,0.2,0.1s0.1,0.2,0.2,0.4l0.2,0.3h-0.4
			l-0.1-0.3c-0.1-0.2-0.2-0.3-0.3-0.4c-0.1,0-0.2-0.1-0.2-0.1h-0.2v0.8L214.2,62.7z M214.9,60.3c-0.3,0-0.5,0.1-0.7,0.2
			c-0.2,0.1-0.4,0.3-0.5,0.5c-0.1,0.2-0.2,0.5-0.2,0.7c0,0.3,0.1,0.5,0.2,0.7c0.1,0.2,0.3,0.4,0.5,0.5c0.2,0.1,0.5,0.2,0.7,0.2
			c0.3,0,0.5-0.1,0.7-0.2c0.2-0.1,0.4-0.3,0.5-0.5c0.1-0.2,0.2-0.5,0.2-0.7c0-0.3-0.1-0.5-0.2-0.7c-0.1-0.2-0.3-0.4-0.5-0.5
			C215.4,60.4,215.2,60.4,214.9,60.3L214.9,60.3z M214.9,60.1c0.3,0,0.6,0.1,0.8,0.2c0.5,0.3,0.9,0.9,0.9,1.5c0,0.3-0.1,0.6-0.2,0.9
			c-0.2,0.3-0.4,0.5-0.6,0.7c-0.3,0.1-0.6,0.2-0.9,0.2c-0.3,0-0.6-0.1-0.9-0.2c-0.3-0.2-0.5-0.4-0.6-0.7c-0.1-0.3-0.2-0.6-0.2-0.9
			c0-0.3,0.1-0.6,0.2-0.9c0.2-0.3,0.4-0.5,0.6-0.6C214.3,60.2,214.6,60.1,214.9,60.1z"/>
	</g>
</g>
<rect x="25" y="44" class="st13" width="200" height="57"/>
</svg>
